<?xml version="1.0" encoding="utf-8"?>
<!-- Generator: Adobe Illustrator 23.1.0, SVG Export Plug-In . SVG Version: 6.00 Build 0)  -->
<svg version="1.1"
	 id="VARG" inkscape:version="0.43" sodipodi:docbase="C:\Documents and Settings\Ángel\Escritorio\Julio 2010" sodipodi:docname="Bose_logo.svg" sodipodi:version="0.32" xmlns:cc="http://web.resource.org/cc/" xmlns:dc="http://purl.org/dc/elements/1.1/" xmlns:inkscape="http://www.inkscape.org/namespaces/inkscape" xmlns:rdf="http://www.w3.org/1999/02/22-rdf-syntax-ns#" xmlns:sodipodi="http://inkscape.sourceforge.net/DTD/sodipodi-0.dtd" xmlns:svg="http://www.w3.org/2000/svg"
	 xmlns="http://www.w3.org/2000/svg" xmlns:xlink="http://www.w3.org/1999/xlink" x="0px" y="0px" viewBox="0 0 215 215"
	 style="enable-background:new 0 0 215 215;" xml:space="preserve">
<style type="text/css">
	.st0{fill:#FFFFFF;}
</style>
<sodipodi:namedview  bordercolor="#666666" borderopacity="1.0" id="base" inkscape:current-layer="VARG" inkscape:cx="95.552941" inkscape:cy="43.669561" inkscape:pageopacity="0.0" inkscape:pageshadow="2" inkscape:window-height="721" inkscape:window-width="1024" inkscape:window-x="-4" inkscape:window-y="-4" inkscape:zoom="3.4884857" pagecolor="#ffffff">
	</sodipodi:namedview>
<rect x="0" class="st0" width="215" height="214"/>
<path id="path5" d="M141.1,105.7h-12.3l2-3.4c0.8-1.4,1.6-1.9,2.8-1.9c1.2,0,1.7,1,1,2.2h12.5l1.2-2.2c0.9-1.7,0.9-3.5-1.3-3.5H125
	c-2,0-3.6,0.2-4.7,2.2l-3.9,6.6c-1.1,1.9-1,3.5,1.7,3.5h12.7l-2.1,3.7c-0.6,1-1.3,1.7-3.1,1.7c-1.5,0-1.4-1-0.7-2h-12.4l-1.5,2.5
	c-0.9,1.6-0.2,3,2,3h21.9c2,0,3.7-0.9,4.7-2.6l3.7-6.2C144,107.6,143.6,105.7,141.1,105.7z"/>
<path id="path9" d="M112.8,96.9H94c-2.6,0-5.9,0-7.9,3.5l-8.3,14.1c-1.2,1.9-0.2,3.5,2,3.5h21.8c2.2,0,3.7-0.7,5.4-3.5l8.3-14.1
	C116.4,98.6,114.7,96.9,112.8,96.9z M102.2,102.3L96,112.8c-0.8,1.5-1.6,1.7-3.5,1.7c-1.9,0-2.4-0.7-1.8-1.7l6.3-10.5
	c0.9-1.6,2-1.9,3.6-1.9S103,100.9,102.2,102.3z"/>
<path id="path11" sodipodi:nodetypes="cccccccccccccccccccccccccc" d="M79.9,96.9H55.8l-10.4,17.6H22.5l0,3.5h46.2
	c3.1,0,4.1-1.5,4.7-2.7L76,111c0.7-1.2,0.7-2.5-0.7-3.2c1.3,0,3.2-0.9,4.2-2.8l2.5-4.2C83.3,98.7,81.8,96.9,79.9,96.9z M67.5,111.1
	l-1.2,2c-0.3,0.7-0.9,1.4-2.3,1.4h-6.1l3.2-5.3h6C68,109.2,68,110.2,67.5,111.1z M72.7,102.3l-1.2,2c-0.3,0.7-0.9,1.4-2.3,1.4H63
	l3.2-5.3h6C73.2,100.4,73.2,101.4,72.7,102.3z"/>
<path id="polygon1317" sodipodi:nodetypes="ccccccccccccc" d="M164.7,100.4h31.1l0-3.5h-41.5L141.9,118h28.9l2.1-3.5h-16.5l3.2-5.3
	H176l2-3.5h-16.4L164.7,100.4z"/>
</svg>
